<?xml version="1.0" encoding="UTF-8"?> <!-- Creator: CorelDRAW 2017 --> <svg xmlns="http://www.w3.org/2000/svg" xmlns:xlink="http://www.w3.org/1999/xlink" xml:space="preserve" width="350px" height="135px" style="shape-rendering:geometricPrecision; text-rendering:geometricPrecision; image-rendering:optimizeQuality; fill-rule:evenodd; clip-rule:evenodd" viewBox="0 0 1137 523.92"> <defs> <style type="text/css"> <![CDATA[ .fil1 {fill:none} .fil0 {fill:white;fill-rule:nonzero} ]]> </style> </defs> <g id="Слой_x0020_1"> <metadata id="CorelCorpID_0Corel-Layer"></metadata> <g id="_2123959421104"> <path class="fil0" d="M209.4 324.45c-0.92,0.89 -1.86,1.77 -2.77,2.67 -15.45,14.86 -30.92,28.91 -48.23,41.6 -4.61,3.32 -9.28,6.51 -14.33,9.15 -1.5,0.93 -3.21,1.37 -4.8,1.98 -0.74,0.28 -1.58,0.22 -2.31,0.31 -0.48,0.05 -0.99,-0.16 -1.45,-0.23 -0.66,-0.21 -1.15,-0.49 -1.67,-0.94 -0.57,-0.53 -0.91,-1.04 -1.19,-1.77 -0.26,-0.39 -0.19,-1.33 -0.26,-1.75 0.06,-0.94 0.26,-1.6 0.63,-2.45 0.27,-1.14 2.16,-3.17 2.79,-4.17 3.63,-4.3 7.81,-8.1 12.02,-11.8 17.16,-14.7 35.58,-27.49 54.39,-39.96 8.16,-5.31 15.62,-9.71 24.76,-13.19 7.9,-2.77 14.4,-4.1 22.73,-2.48 0.01,0 0.2,0.05 0.24,0.06 6.92,2.13 11.96,4.61 17.24,9.65 4.4,4.55 6.7,8.69 8.23,14.83 1.28,6.16 1.03,10.98 -0.38,17.08 -1.73,6.53 -4.06,11.31 -7.83,16.89 -17.1,22.61 -40.28,39.11 -66.21,50.24 -48.03,18.44 36.4,-26.94 39.42,-28.26 16.53,-6.96 31.93,-12.44 47.73,-21.22 3.74,-2.13 7.45,-4.17 11.29,-6.13 10.75,-5.2 22.44,-8.83 34.28,-10.45 6.17,-0.66 11.91,-0.81 17.69,1.81 2.66,1.37 4.34,2.86 5.81,5.49 1.52,3.05 1.79,5.66 1.6,9.03 -0.28,3.14 -0.91,5.46 -2.28,8.3 -1.4,2.74 -2.82,4.63 -4.97,6.83 -4.64,4.43 -9.11,6.89 -15.1,9.09 -6.19,2.09 -11.4,3.02 -17.93,3.12 -5.89,-0.06 -10.79,-0.72 -16.2,-3.16 -2.65,-1.28 -4.54,-2.54 -6.53,-4.72 -1.66,-1.95 -2.6,-3.65 -3.27,-6.13 -0.58,-2.47 -0.62,-4.42 -0.26,-6.92 -0.02,-0.71 1.97,-7.35 2.7,-7.05 0.11,0.12 -1.05,6.48 -1.12,7.23 -0.13,2.26 0,3.99 0.66,6.18 0.7,2.07 1.55,3.46 3.05,5.07 1.82,1.8 3.55,2.83 5.88,3.88 5.05,2.03 9.63,2.49 15.04,2.41 6.11,-0.26 10.98,-1.24 16.74,-3.32 5.34,-2.1 9.42,-4.39 13.52,-8.46 1.76,-1.86 2.98,-3.53 4.11,-5.84 1.07,-2.33 1.56,-4.23 1.75,-6.79 0.11,-2.46 -0.05,-4.48 -1.21,-6.69 -1.01,-1.74 -2.14,-2.67 -3.93,-3.57 -4.81,-2.08 -10.09,-1.77 -15.18,-1.17 -11.11,1.65 -22.5,5.27 -32.55,10.32 -3.73,1.95 -7.36,4 -11,6.12 -15.97,9.07 -31.37,14.72 -48.09,21.91 -8.5,3.73 -66.56,26.36 -43.98,17.49 24.62,-10.85 46.97,-26.71 63.18,-48.34 3.26,-4.88 5.31,-9.07 6.78,-14.77 1.14,-4.98 1.36,-8.98 0.29,-14 -1.21,-4.8 -3.02,-8 -6.47,-11.54 -4.37,-4.13 -8.63,-6.15 -14.35,-7.88 -0.01,-0.01 0.12,0.03 0.12,0.03 -6.85,-1.29 -12.39,0.01 -18.85,2.31 -8.55,3.3 -15.65,7.55 -23.29,12.56 -18.49,12.33 -36.65,25.01 -53.48,39.56 -3.86,3.4 -7.86,7.03 -11.16,10.98 -0.72,0.75 -1.23,1.68 -1.77,2.55 -0.09,0.22 0.01,-0.1 0.02,-0.29 0.01,-0.36 -0.05,-0.64 -0.16,-0.99 -0.19,-0.5 -0.42,-0.84 -0.82,-1.21 -0.19,-0.28 -0.77,-0.45 -1.03,-0.59 -0.12,-0.07 -0.41,-0.08 -0.55,-0.1 -0.18,0 0.18,-0.05 0.26,-0.07 1.11,-0.31 2.31,-0.9 3.34,-1.43 4.68,-2.47 9.05,-5.51 13.34,-8.6 16.94,-12.52 32.16,-26.43 47.3,-41.04 0.82,-0.7 1.78,-1.74 2.57,-2.51 27.78,-27.05 55.31,-54.07 82.83,-81.38 0,0 -0.12,0.14 -0.19,0.21 4.36,-5.53 8.59,-11.03 12.24,-17.07 1.25,-2.14 2.33,-4.15 3.17,-6.49 0.41,-1.21 0.81,-2.59 0.65,-3.89 0.02,-0.23 -0.18,-0.56 -0.25,-0.75 -0.07,-0.22 -0.43,-0.43 -0.56,-0.57 -1.27,-0.83 -3,-1.07 -4.48,-1.22 -8.12,-0.55 -17.83,1.66 -25.68,3.53 -0.01,0 0.13,-0.04 0.14,-0.03 -47.8,15.9 -80.1,33.38 -117.96,66.77 -35.68,33.45 -57.69,65.17 -82.19,107.2 -15.65,27.92 -26.8,54.67 -38.62,84.28 -3.6,8.95 -7.38,17.74 -12.16,26.14 -0.96,1.97 -2.51,3.9 -3.75,5.7 -0.52,0.76 -1.15,1.17 -1.78,1.76 -0.23,0.21 -0.7,0.38 -0.96,0.52 -0.74,0.29 -1.32,0.37 -2.11,0.32 -0.46,0.06 -1.26,-0.39 -1.64,-0.5 -0.57,-0.32 -0.95,-0.65 -1.36,-1.16 -0.51,-0.71 -0.77,-1.32 -0.88,-2.19 -0.19,-0.46 0.13,-1.46 0.16,-1.92 0.01,-0.23 0.29,-0.85 0.38,-1.11 0.25,-0.74 0.78,-1.52 1.12,-2.23 1.09,-2.22 2.8,-4.09 4.15,-6.14 5.38,-6.95 10.99,-12.57 17.56,-18.4 22.35,-19.68 43.81,-40.06 65.73,-60.19 -0.22,0.21 0.1,-0.11 -0.11,0.11 69.86,-66.94 142.33,-128.98 208.42,-199.85 56.53,-60.78 109.81,-110.12 176.38,-159.53 14.38,-10.45 28.69,-20.31 44.17,-29.07 5.04,-2.78 9.96,-5.33 15.33,-7.42 1.87,-0.87 3.92,-1.22 5.88,-1.79 1.9,-0.36 3.41,-0.51 5.33,-0.18 1.09,0.23 1.88,0.54 2.82,1.17 1.03,0.75 1.66,1.49 2.21,2.65 0.46,1.07 0.62,1.93 0.62,3.09 0.14,0.63 -0.33,2.11 -0.42,2.75 -1.37,4.39 -4.12,8.18 -6.85,11.81 -11.73,14.86 -26.32,28.7 -40.18,41.61 -4.19,3.88 -8.4,7.73 -12.64,11.57 -21.4,19.36 -43.69,37.49 -65.16,56.62 -8.93,7.92 -17.67,15.82 -25.89,24.48 -1.35,1.54 -12.49,18.21 -13.41,18.48 -3.4,-2.79 8.17,-19.56 9.69,-21.59 7.38,-9.73 15.94,-18.23 24.73,-26.68 20.65,-19.88 42.69,-38.77 64,-57.99 4.21,-3.81 8.39,-7.64 12.56,-11.49 13.41,-12.49 27.82,-26.1 39.17,-40.46 1.75,-2.32 4.48,-5.99 5.35,-8.78 0.02,-0.04 0.09,-0.42 0.09,-0.42 0.01,0.25 0.08,0.47 0.18,0.7 0.2,0.43 0.45,0.73 0.83,1.01 0.09,0.11 0.41,0.2 0.55,0.26 -0.46,-0.07 -1.35,0.09 -1.8,0.17 -1.56,0.34 -2.99,0.82 -4.48,1.38 -4.93,1.92 -9.53,4.32 -14.16,6.87 -15.15,8.55 -29.18,18.23 -43.26,28.44 -66.11,49.01 -119.02,97.97 -175.18,158.26 -66.27,70.97 -138.84,133.02 -208.89,200.02 0,-0.01 -0.11,0.11 0.02,-0.03 -22.01,20.21 -43.6,40.66 -66.06,60.39 -6.12,5.42 -11.41,10.67 -16.42,17.14 -1.25,1.33 -2.5,3.63 -3.53,5.2 -0.26,0.38 -0.46,0.88 -0.66,1.29 -0.02,0.04 -0.06,0.17 -0.02,0.04 0.1,-0.4 0.1,-0.79 0.06,-1.2 -0.1,-0.79 -0.35,-1.36 -0.82,-2 -0.39,-0.49 -0.75,-0.79 -1.29,-1.1 -0.37,-0.32 -1.16,-0.36 -1.56,-0.48 -0.7,-0.05 -1.25,0.01 -1.9,0.27 -0.15,0.02 -0.52,0.28 -0.67,0.37 -0.42,0.3 -0.2,0.16 0.05,-0.15 1.1,-1.39 2.12,-3.09 3.01,-4.62 4.57,-8.01 8.21,-16.48 11.66,-25.03 12.01,-29.99 23.32,-57.01 39.22,-85.3 25.03,-42.84 47.47,-75.01 83.9,-109.09 38.88,-34.18 72.05,-52.11 121.08,-68.34 0.03,-0.01 0.22,-0.06 0.27,-0.08 9.09,-2.15 18.96,-4.36 28.35,-3.7 3.11,0.32 5.63,0.88 8.27,2.62 1.21,0.88 1.99,1.68 2.79,2.95 0.73,1.25 1.09,2.29 1.31,3.72 0.33,2.79 -0.13,4.97 -1.02,7.61 -1.04,2.86 -2.31,5.29 -3.85,7.9 -3.86,6.36 -8.27,12.1 -12.87,17.92 -0.08,0.11 -0.29,0.35 -0.39,0.44 -27.31,27.48 -55.08,54.19 -82.91,81.12z"></path> </g> <path class="fil1" d="M394 186.89c4.58,-23.13 55.69,-60.36 114.04,-114.45 79.83,-74.01 45.19,-67.77 -23.22,-17.72 -57.82,42.3 -117.87,95.67 -175.78,158.89 -62.86,68.63 -138.49,132.06 -208.64,199.92 -22.98,21.01 -42.41,39.75 -65.85,60.23 -31.7,27.72 -25.07,43.83 -5.4,-5.52 11.61,-29.15 23.43,-57.8 38.92,-84.79 48.74,-84.98 105.2,-144.87 202.62,-175.73 50.36,-12.29 38.94,7.51 18.9,32.8 -30.53,30.9 -57.54,56.62 -85.59,83.9 -79.5,77.28 -101.14,62.45 0.15,-4.41 16.95,-11.18 32.22,-18.07 44.86,-15.26 27,7.79 29.58,32.95 15.52,53.33 -34.37,49.83 -130.48,72.81 -23,26.42 16.7,-7.21 32.06,-12.42 47.92,-21.57 3.61,-2.09 7.31,-4.16 11.14,-6.13 12.53,-6.43 57.86,-22.43 56.12,3.5 -1.45,21.71 -36.23,31 -53.81,23.09 -10.46,-4.71 -11.89,-13.83 -7.92,-23.59"></path> <g id="_2123959415440"> <path class="fil0" d="M515.46 342.6c-3,1.72 -5.3,3.65 -7.75,6.09 -2.97,2.92 -6.92,6.12 -9.15,9.57 -0.33,0.43 -0.44,0.94 -0.61,1.41 -0.03,0.05 -0.03,0.18 -0.02,0.24 0.02,0.23 0.8,0.67 0.86,0.75 0.37,0.47 3.02,1.08 3.56,1.32 4.31,0.98 8.22,0.69 12.55,0.08 5.52,-0.87 10.46,-2.19 15.78,-3.83 10.17,-3.29 19.8,-7.28 29.84,-10.63 1.27,-0.41 24.76,-8.71 25.44,-6.88 0.67,1.81 -22.54,10.87 -23.78,11.38 -9.97,4.08 -19.37,8.26 -29.57,11.97 -5.62,1.92 -10.8,3.44 -16.65,4.51 -5.35,0.88 -9.85,1.23 -15.21,0.14 -2,-0.48 -3.65,-0.99 -5.47,-1.98 -1.6,-0.94 -2.65,-1.86 -3.59,-3.48 -0.81,-1.6 -1.01,-2.9 -0.79,-4.67 0.25,-1.51 0.7,-2.61 1.45,-3.94 2.83,-4.58 6.37,-7.37 10.05,-11.13 1.61,-2.15 6.83,-6.04 9.27,-7.47 0.32,-0.18 1.02,-0.51 1.27,-0.7 1.46,-0.73 2.75,-1.28 4.34,-1.66 0.67,-0.24 1.46,-0.15 2.15,-0.21 1.09,0.05 1.88,0.29 2.8,0.9 0.64,0.48 1.02,0.92 1.4,1.63 0.33,0.71 0.46,1.28 0.46,2.06 -0.04,1.08 -0.3,1.84 -0.85,2.76 -0.92,1.44 -2.02,2.41 -3.35,3.46 -4.46,3.39 -9.56,5.82 -14.65,8.09 -15.9,7 -31.61,13.67 -47.85,19.89 -7.18,2.92 -14.39,5.44 -21.69,7.99 -4.29,1.35 -8.36,2.5 -12.79,3.31 -3.84,0.62 -7.36,1 -11.16,-0.12 -2.37,-0.86 -3.89,-2.02 -5.27,-4.14 -1.11,-1.92 -1.52,-3.53 -1.61,-5.74 -0.01,-2.02 0.26,-3.55 0.91,-5.47 0.69,-1.86 1.44,-3.22 2.74,-4.73 0.99,-1.12 2.18,-2.51 2.87,-3.84 0.16,-0.34 0.12,-0.4 0.08,-0.05 -0.03,0.31 0.01,0.62 0.09,0.92 0.13,0.52 0.36,0.94 0.71,1.34 0.19,0.35 0.82,0.6 1.09,0.8 0.14,0.1 0.47,0.14 0.64,0.18 0.21,0.03 -0.28,0.06 -0.4,0.08 -1.51,0.33 -3.1,1.04 -4.5,1.68 -15.51,7.21 -30.08,14.24 -46.15,20.33 -8.82,3.23 -17,5.82 -26.23,7.63 -8.4,1.5 -15.66,2.19 -24.09,0.55 -3.74,-0.85 -6.6,-1.87 -9.88,-3.84 -0.59,-0.24 -2.39,-1.65 -3.01,-2.17 -1.91,-1.64 -3.2,-3.12 -4.58,-5.22 -2.18,-3.58 -3.17,-6.63 -3.75,-10.77 -0.55,-1.76 0.25,-13.39 2.89,-13.22 1.66,0.54 3.68,9.5 4.43,11.63 0.96,2.82 1.98,4.99 3.73,7.41 0.34,0.71 2.4,2.7 3.07,3.27 0.63,0.53 1.26,0.98 1.96,1.41 2.31,1.41 4.38,2.12 7.01,2.72 7.08,1.4 13.53,0.71 20.58,-0.52 8.73,-1.7 16.46,-4.14 24.81,-7.16 15.86,-5.95 30.27,-12.87 45.6,-19.88 2.14,-0.98 4.1,-1.79 6.41,-2.28 1.08,-0.21 1.96,-0.3 3.06,-0.19 0.62,-0.02 1.25,0.33 1.83,0.48 0.79,0.36 1.32,0.74 1.91,1.38 0.6,0.7 0.92,1.31 1.17,2.2 0.26,0.5 0.11,1.54 0.15,2.07 -0.14,1.18 -0.44,2.02 -0.96,3.07 -1.14,2.15 -2.55,3.87 -4.16,5.69 -0.5,0.57 -0.82,1.2 -1.08,1.91 -0.29,0.84 -0.43,1.51 -0.43,2.4 0.02,0.51 0.08,1.03 0.34,1.49 0.2,0.3 0.38,0.41 0.72,0.54 1.98,0.6 5.04,0.16 7.04,-0.16 4.02,-0.71 7.78,-1.76 11.67,-2.97 7.32,-2.36 14.16,-5.05 21.33,-7.73 16.06,-5.47 31.87,-13.06 47.61,-19.38 4.37,-1.92 9.21,-4.15 13.08,-6.99 0.51,-0.39 1.11,-0.86 1.52,-1.36 -0.2,0.45 -0.25,0.62 -0.27,1.15 0,0.55 0.1,0.96 0.34,1.46 0.27,0.51 0.56,0.85 1.02,1.19 0.39,0.26 0.82,0.48 1.31,0.5 0.14,0 -0.14,0.02 -0.21,0.04 -0.86,0.18 -1.73,0.57 -2.51,0.95 -0.19,0.06 -0.72,0.38 -0.92,0.49z"></path> </g> <path class="fil1" d="M294.3 357.77c-1.15,18.93 6.76,28.16 19.27,30.83 26.02,5.56 70.35,-17.36 93.71,-28.02 9.01,-4.22 11.4,-2.17 4.43,5.64 -3.21,3.6 -4.12,11.35 1.39,13.21 8.68,2.91 33.92,-7.68 42.84,-11.02 16.09,-6.04 31.95,-12.75 47.73,-19.64 27.66,-12.06 15.44,-17.1 1.38,-2.67 -5.48,5.63 -18.95,15.58 -3.5,19.25 15.87,3.77 44.44,-9.81 59.8,-15.51 8.2,-3.04 16.4,-6.08 24.61,-9.12"></path> <g id="_2123959417264"> <path class="fil0" d="M612.6 360.41c-0.31,0.26 -0.64,0.6 -0.94,0.84 -0.6,0.58 -1.24,1.26 -1.61,2.02 -0.05,0.07 -0.07,0.23 -0.11,0.29 0,0 -0.03,-0.14 -0.04,-0.14 -0.01,0 -0.05,-0.12 -0.07,-0.14 0,0 0.14,0.15 0.14,0.15 -0.01,0.19 1.54,0.65 1.63,0.69 0.66,0.33 2.43,0.26 3.16,0.37 3.19,0 5.79,-0.54 8.8,-1.56 0.03,-0.01 0.06,-0.03 0.1,-0.04 -0.17,0.46 45.93,-14.94 46.96,-11.78 0.94,2.88 -42.69,17.44 -44.8,18.15 0.08,-0.02 0.09,-0.03 0.04,-0.01 -3.76,1.43 -7.02,2.17 -11.05,2.32 -1.72,0.02 -3.17,-0.08 -4.86,-0.44 -1.6,-0.37 -2.83,-0.83 -4.2,-1.76 -0.61,-0.27 -1.28,-1.2 -1.75,-1.64 -0.56,-0.75 -0.89,-1.38 -1.17,-2.28 -0.26,-0.92 -0.32,-1.66 -0.24,-2.61 -0.08,-0.76 0.47,-1.8 0.64,-2.51 0.8,-1.81 1.76,-3.02 3.13,-4.43 0.15,-0.21 1.06,-1 1.3,-1.22 1.32,-1.14 2.62,-2.09 4.07,-3.06 5.08,-3.25 12.98,-6.77 17.09,-9.81 0.99,-0.74 1.76,-1.56 2.65,-2.39 0.19,-0.21 0.67,-0.95 0.54,-0.63 -0.14,0.39 -0.16,0.74 -0.12,1.16 0.1,0.71 0.33,1.21 0.8,1.75 0.12,0.25 0.7,0.5 0.91,0.64 0.07,0.03 0.19,0.05 0.05,0.03 -3.46,-0.19 -10.67,2 -14.01,3.04 -12.2,4.01 -29.1,10.62 -39.16,18.58 -4.09,3.45 -8.3,6.97 -12.74,9.96 -1.33,0.86 -2.6,1.63 -4.1,2.17 -1.09,0.36 -1.89,0.46 -3.04,0.28 -1.05,-0.22 -1.77,-0.61 -2.53,-1.36 -0.73,-0.79 -1.11,-1.52 -1.3,-2.57 -0.15,-1.16 -0.02,-1.97 0.37,-3.05 0.04,-0.33 0.76,-1.52 0.94,-1.89 0.65,-1.36 2.06,-2.88 2.91,-4.13 3.35,-4.24 6.99,-8.18 10.7,-12.09 5.54,-5.86 10.79,-11.67 15.94,-17.86 1.53,-1.85 10.84,-12.56 13.78,-10.44 2.96,3.31 -4.86,13.69 -6.85,16.18 -5.26,6.33 -10.75,12.31 -16.44,18.27 -3.53,3.68 -7.01,7.41 -10.21,11.39 -0.86,0.98 -1.54,2.09 -2.28,3.16 -0.02,0.03 -0.29,0.52 -0.29,0.52 0.17,-0.49 0.15,-0.97 0.08,-1.48 -0.15,-0.86 -0.48,-1.48 -1.08,-2.12 -0.63,-0.61 -1.22,-0.95 -2.08,-1.13 -0.32,-0.18 -1.06,-0.01 -1.42,0.03 0.58,-0.2 1.6,-0.87 2.12,-1.2 0.31,0.33 11.23,-8.71 11.95,-9.23 11.48,-8.9 28.47,-15.48 42.27,-19.88 5.18,-1.56 12.04,-3.65 17.49,-3.17 0.42,-0.04 1.42,0.34 1.85,0.45 0.85,0.34 1.43,0.73 2.08,1.39 0.76,0.86 1.14,1.67 1.3,2.81 0.09,0.97 -0.02,1.68 -0.34,2.59 -0.55,1.37 -1.24,2.25 -2.23,3.32 -0.45,0.72 -2.81,2.49 -3.55,3.15 -5.02,3.52 -12.24,6.5 -17.89,9.99 -1.13,0.81 -2.19,1.45 -3.29,2.36z"></path> </g> <path class="fil1" d="M601.41 323.01c-7.89,10.98 -16.9,21.34 -26.51,31.37 -18.45,19.27 -19.28,24.97 2.79,6.32 15.7,-13.28 75.01,-32.76 53.61,-15.77 -2.56,2.03 -11.1,5.77 -17.49,9.91 -16.36,10.59 -3.14,16.51 10.95,11.23 15.29,-4.99 30.57,-9.98 45.86,-14.96"></path> <g id="_2123959417840"> <path class="fil0" d="M701.28 364.86c-3.82,1.1 -7.27,1.84 -11.22,2.27 -3.62,0.36 -6.69,0.41 -10.29,-0.17 -3.21,-0.59 -5.71,-1.41 -8.29,-3.46 -1.22,-1.03 -2,-1.95 -2.76,-3.36 -0.73,-1.45 -1.06,-2.68 -1.2,-4.3 0.05,-1.85 1.55,-10.26 4.12,-9.58 1,0.58 0.15,6.3 0.7,8.93 0.22,0.87 0.49,1.5 1.01,2.23 0.24,0.53 1.19,1.12 1.61,1.49 1.8,1.08 3.62,1.43 5.68,1.66 2.96,0.23 5.58,0 8.51,-0.43 2.33,-0.12 7.54,-1.71 9.84,-2.49 3.42,-1.16 6.46,-2.45 9.68,-4.09 5.02,-2.66 10.01,-5.84 13.21,-10.65 0.46,-0.77 0.8,-1.47 0.98,-2.35 0.09,-0.55 0.11,-0.98 -0.04,-1.52 -0.02,-0.45 -0.6,-1.08 -0.77,-1.4 -0.3,-0.57 -1.49,-1.23 -1.96,-1.62 -2.57,-1.52 -5.2,-2.17 -8.12,-2.66 -4.48,-0.64 -8.35,-0.6 -12.85,-0.22 -5.35,0.6 -9.56,1.69 -14.21,4.42 -0.91,0.3 -3.75,2.76 -4.61,3.63 -1.57,1.59 -6.18,6.1 -8.66,5.07 -4,-2.36 0.23,-9.15 2.25,-11.39 1.99,-2.01 3.99,-3.49 6.41,-4.98 5.94,-3.42 11.24,-4.82 18.05,-5.51 5.28,-0.4 9.76,-0.37 15.01,0.46 4.22,0.75 7.57,1.73 11.26,3.97 1.6,1.04 2.75,2.01 3.97,3.48 1.18,1.5 1.87,2.81 2.37,4.65 0.44,1.91 0.45,3.39 0.08,5.31 -0.45,1.96 -1.1,3.38 -2.16,5.08 -4.34,6.25 -9.97,9.92 -16.66,13.29 -1.01,0.89 -9.12,3.71 -10.94,4.24z"></path> </g> <path class="fil1" d="M671.64 346.26c4.61,-11.11 15.59,-16.48 27.09,-17.5 21.01,-1.85 33.1,6.14 26.65,16.36 -11.38,18.01 -66.11,30.98 -53.74,1.14z"></path> <g id="_2123959416368"> <path class="fil0" d="M996.89 157.01c25.42,-17.38 50.58,-33.6 78.23,-47.24 10.63,-5.08 21.41,-9.85 32.96,-12.38 3.75,-0.74 7.05,-1.17 10.87,-0.75 1.59,0.21 2.85,0.52 4.31,1.2 1.44,0.7 2.41,1.44 3.43,2.68 0.97,1.28 1.44,2.38 1.77,3.95 0.28,1.58 0.25,2.81 0.02,4.39 -0.63,3.62 -1.95,6.48 -3.69,9.68 -5.55,9.56 -12.83,17.6 -20.48,25.51 -28.96,28.78 -61.25,52.31 -94.97,75.14 -20.97,13.08 -196.54,111.77 -223.44,107.53 4.23,-5.06 198.77,-99.07 220.05,-112.56 33.16,-22.73 65.11,-46.23 93.5,-74.85 7.12,-7.43 14.12,-15.16 19.26,-24.14 1.27,-2.34 2.42,-4.72 2.87,-7.36 0.2,-0.6 0.02,-1.39 0.01,-2 -0.01,-0.39 -0.28,-0.66 -0.41,-0.95 -0.13,-0.28 -0.73,-0.52 -0.92,-0.67 -0.43,-0.34 -1.69,-0.43 -2.19,-0.57 -2.88,-0.3 -5.73,0.14 -8.56,0.71 -10.91,2.45 -21.19,7.1 -31.22,11.93 -27.16,13.59 -51.9,29.65 -76.89,46.83 -12.18,8.47 -24.12,17.11 -36.02,25.97 -69.96,52.77 -135.28,108.87 -201.05,166.71 -26.32,23.19 -51.75,45.41 -76.42,70.46 -6.57,6.79 -13.11,13.67 -18.71,21.29 -1.52,2.13 -2.97,4.31 -4.01,6.72 -0.34,0.6 -0.45,1.37 -0.64,2.02 -0.08,0.28 -0.04,0.56 -0.03,0.83l0 0.02c0.05,0.09 0.38,0.23 0.47,0.29 1.46,0.62 3.4,0.7 4.96,0.74 7.93,-0.06 16.79,-2.03 24.49,-3.79 56.52,-13.58 112.45,-30.91 165.66,-54.39 13.72,-6.39 26.22,-12.83 38.72,-21.42 8.19,-5.87 16.25,-12.29 20.97,-21.39 1.48,-3.23 2.18,-5.83 1.9,-9.4 -0.47,-3.79 -1.83,-6.4 -4.09,-9.43 -8.56,-10.35 -21.81,-16.26 -33.96,-21.26 0.02,0.01 -0.17,-0.06 0.06,0.03 -91.43,-32.22 -162.44,-43.56 -258.86,-39.92 -44.46,2.66 -83.98,7.8 -127.33,16.96 -10.59,2.31 -119.58,29.55 -122.3,28.95 8.74,-10.09 105.21,-34.37 120.43,-37.76 43.85,-9.25 83.82,-14.4 128.77,-17.06 97.72,-3.62 169.71,7.93 262.35,40.66 0.21,0.08 0.27,0.1 0.03,0.01 13.94,5.74 27.91,12.23 37.68,24.09 3.34,4.48 5.17,8.29 5.85,13.87 0.4,5.31 -0.51,9.2 -2.72,14 -5.59,10.76 -14.12,17.78 -23.83,24.72 -12.98,8.89 -25.85,15.53 -40.08,22.15 -53.65,23.62 -110.33,41.23 -167.34,54.77 -8.6,1.96 -17.64,3.93 -26.48,3.97 -3.02,-0.05 -5.57,-0.3 -8.37,-1.51 -1.36,-0.64 -2.28,-1.28 -3.29,-2.4 -0.99,-1.17 -1.51,-2.24 -1.86,-3.73 -0.29,-1.45 -0.27,-2.55 -0.04,-4 -0.02,-0.95 0.91,-2.93 1.18,-3.87 1.35,-3.08 3,-5.61 4.95,-8.34 5.85,-7.95 12.66,-15.13 19.52,-22.21 24.86,-25.18 50.45,-47.5 76.97,-70.8 66.01,-57.89 131.58,-114.03 201.87,-166.72 11.92,-8.85 23.88,-17.47 36.09,-25.91z"></path> </g> <path class="fil1" d="M375.21 323.08c163.73,-54.25 331.39,-76.69 510.04,-10.07 146.74,58.61 -145.73,135.16 -189.85,145.43 -45.16,10.52 -44.59,-0.06 -10.47,-35.1 24.59,-25.24 50.33,-47.4 76.7,-70.63 71.34,-62.86 138.72,-119.93 201.46,-166.72 194.46,-144.98 219.61,-87.38 44.55,30.69 -66.07,44.56 -147.55,82.23 -221.74,110.04"></path> <g id="_2123959419952"> <path class="fil0" d="M309.63 482.84c-4.22,1.36 -85.12,30.08 -86.67,28.55 -0.19,-6.02 79.73,-34.16 84.31,-35.73 72.33,-24.08 149.44,-39.78 224.96,-49.79 2.65,-0.35 27.49,-2.94 27.96,1.07 0.44,3.82 -24.13,7.51 -26.77,7.86 -76.21,10.1 -150.35,25.1 -223.79,48.04z"></path> </g> <path class="fil1" d="M560.19 426.94c-139.54,16.18 -248.41,45.89 -337.23,84.45"></path> <rect class="fil1" width="1137" height="523.92"></rect> </g> </svg> 
